<svg xmlns="http://www.w3.org/2000/svg" version="1.1" xmlns:xlink="http://www.w3.org/1999/xlink" width="2000" height="108" viewBox="0 0 2000 108"><svg xml:space="preserve" width="2000" height="108" data-version="2" data-id="lg_Rphqr7UjNu4YnNmhTy" viewBox="0 0 568 108" x="0" y="0"><rect width="100%" height="100%" fill="transparent"></rect><path fill="#00f146" d="M164.02 90.37h-26.3V8.38h27.73q20.23 0 30.52 6.61 10.3 6.6 10.3 19.45 0 8.93-4.47 15.17-4.46 6.25-12.55 9.52-8.09 3.28-19.04 3.28h-6.19zm0-44.5h5.12q6.31 0 9.76-2.62t3.45-7.86q0-4.87-3.33-7.31-3.34-2.44-9.64-2.44h-5.36z" paint-order="stroke"></path><rect width="68.55" height="81.99" x="-34.27" y="-40.99" fill="none" rx="0" ry="0" transform="translate(172.5 49.88)"></rect><path fill="#00f146" d="M271.48 92.28q-8.57 0-14.16-2.56t-8.93-7.08q-3.33-4.52-4.99-10.59-1.67-6.07-2.27-13.09h-5.59v31.41h-26.06V8.5h33.68q19.51 0 28.14 6.84 8.63 6.85 8.63 18.51 0 7.02-3.81 12.55-3.81 5.54-12.26 9.22.48 2.62.84 4.29.35 1.66 1.07 3.69 1.54 4.28 3.86 5.95 2.33 1.66 6.37 1.66 2.62 0 5.24-.71l1.43 19.52q-2.38.95-5.06 1.6-2.68.66-6.13.66m-35.94-66.05v16.42h4.52q8.81 0 12.44-1.96 3.63-1.96 3.63-6.72 0-4.05-2.98-5.89-2.97-1.85-9.4-1.85z" paint-order="stroke"></path><rect width="73.19" height="83.78" x="-36.59" y="-41.89" fill="none" rx="0" ry="0" transform="translate(246.57 50.89)"></rect><path fill="#00f146" d="M311.58 90.37h-26.89V8.5h26.89z" paint-order="stroke"></path><rect width="26.89" height="81.87" x="-13.45" y="-40.94" fill="none" rx="0" ry="0" transform="translate(298.63 49.94)"></rect><path fill="#00f146" d="M344.19 90.37h-24.75V8.5h24.75l20.47 39.75L384.65 8.5h24.75v81.87h-24.75V47.53l-15.11 28.56h-10.12l-15.23-28.56z" paint-order="stroke"></path><rect width="89.96" height="81.87" x="-44.98" y="-40.94" fill="none" rx="0" ry="0" transform="translate(364.92 49.94)"></rect><path fill="#00f146" d="M455.57 92.28q-11.9 0-20.94-4.29-9.05-4.28-14.04-12.31-5-8.04-5-19.22V8.5h26.42v46.77q0 7.97 3.86 11.72 3.87 3.75 10.18 3.75 6.66 0 10.17-3.81t3.51-10.47V8.5h26.78v47.96q0 10.59-5.24 18.68-5.23 8.09-14.46 12.61-9.22 4.53-21.24 4.53" paint-order="stroke"></path><rect width="80.92" height="83.78" x="-40.46" y="-41.89" fill="none" rx="0" ry="0" transform="translate(456.55 50.89)"></rect><path fill="#00f146" d="M527.69 92.28q-7.5 0-15.24-1.85-7.73-1.84-13.09-4.94l4.29-19.39q6.9 3.69 12.91 4.82 6.01 1.13 11.13 1.13 4.76 0 7.2-1.55 2.44-1.55 2.44-4.17 0-2.38-2.74-3.74-2.74-1.37-7.08-2.56-4.35-1.19-9.22-2.8-4.88-1.61-9.23-4.28-4.34-2.68-7.08-7.14-2.73-4.47-2.73-11.25 0-8.57 4.16-14.81 4.17-6.25 11.9-9.64 7.74-3.39 18.21-3.39 7.02 0 13.74 1.84 6.73 1.84 10.77 4.94l-4.04 17.49q-6.07-2.5-10.89-3.63t-9.11-1.13q-4.99 0-7.61 1.43t-2.62 3.81q0 2.26 2.74 3.69 2.73 1.42 7.02 2.73 4.28 1.31 9.16 2.98 4.88 1.66 9.16 4.4 4.29 2.74 7.02 7.14 2.74 4.4 2.74 11.07 0 13.8-8.98 21.3-8.99 7.5-24.93 7.5" paint-order="stroke"></path><rect width="62.35" height="85.56" x="-31.18" y="-42.78" fill="none" rx="0" ry="0" transform="translate(530.92 50)"></rect><circle r="21.34" fill="#00f146" transform="rotate(-19 224.66 -68.78)scale(1.078)"></circle><circle r="21.34" fill="#00f146" transform="rotate(-19 124.96 -193.95)scale(1.078)"></circle><circle r="21.34" fill="#00f146" transform="rotate(-19 275.85 -219.05)scale(1.078)"></circle></svg></svg>